PathFileType	4	(X/Y/Z)	Patient4_TMGait_0pt5_01_right_19.trc.trc
DataRate	CameraRate	NumFrames	NumMarkers	Units	OrigDataRate	OrigDataStartFrame	OrigNumFrames
71.794871794872	71.794871794872	5	33	mm	71.794871794872	89	       141
Frame#	Time	L.ASIS			Sacral			L.Shoulder			Chest			R.Shoulder			Neck			R.ASIS			R.Thigh.Superior			R.Thigh.Lateral			R.Thigh.Inferior			R.Patella			L.Thigh.Superior			L.Thigh.Lateral			L.Thigh.Inferior			L.Patella			L.Shank.Superior			L.Shank.Lateral			L.Shank.Inferior			R.Shank.Superior			R.Shank.Lateral			R.Shank.Inferior			R.Heel			R.Midfoot.Superior			R.Midfoot.Lateral			R.Toe			L.Heel			L.Midfoot.Lateral			L.Midfoot.Superior			L.Toe			L.Elbow			L.Wrist			R.Elbow			R.Wrist			
		X1	Y1	Z1	X2	Y2	Z2	X3	Y3	Z3	X4	Y4	Z4	X5	Y5	Z5	X6	Y6	Z6	X7	Y7	Z7	X8	Y8	Z8	X9	Y9	Z9	X10	Y10	Z10	X11	Y11	Z11	X12	Y12	Z12	X13	Y13	Z13	X14	Y14	Z14	X15	Y15	Z15	X16	Y16	Z16	X17	Y17	Z17	X18	Y18	Z18	X19	Y19	Z19	X20	Y20	Z20	X21	Y21	Z21	X22	Y22	Z22	X23	Y23	Z23	X24	Y24	Z24	X25	Y25	Z25	X26	Y26	Z26	X27	Y27	Z27	X28	Y28	Z28	X29	Y29	Z29	X30	Y30	Z30	X31	Y31	Z31	X32	Y32	Z32	X33	Y33	Z33	

89	25.965714285714	862.485824337692	964.008885741276	304.018113912053	653.562195309068	1002.613285384530	470.104817275448	800.511725444503	1438.904247285356	296.272571409076	917.248000225262	1367.573074533935	447.029408458877	843.663431114870	1433.296554859625	629.467985294231	811.410136020502	1495.166758307260	448.119438150070	883.714322906093	936.477301763091	576.453778327463	910.582572729374	728.982650261607	555.043627888231	823.898760052028	624.853607821763	618.732161846819	900.052045194794	561.662460255044	544.814913383740	886.532249698812	454.636126844046	563.435355388641	929.196823357611	762.616187729976	338.506118992213	855.936154630514	637.600477749367	278.041117929945	946.567953770249	568.673909155651	343.850860157885	953.686059057690	497.495936912452	353.885970972507	930.858307145432	423.293135331042	345.271116659626	849.217643033670	304.287327949618	291.920709151068	904.180667615784	196.372278159058	364.927887678071	811.698477769275	386.772013833250	566.965101378634	694.002896466647	338.902277498175	625.471571649723	684.436780365886	231.453750478602	572.381732288653	484.611333986287	150.731011338184	541.201882962977	657.517713153888	116.418657895506	583.606341756428	549.874601009010	100.934611428179	615.534397422712	735.590862497051	32.508787508926	611.851392654252	781.894448061760	37.657047636563	404.508134686152	857.235934068022	35.447945451073	324.641508886231	939.007983182380	97.236476544456	352.556790774789	1068.332523798317	47.254934157068	326.945128726358	728.460225736679	1093.891843967227	173.576755722842	837.859158668131	856.075738111993	154.260894327105	867.263285038449	1089.769871779434	749.189141258746	1090.108421506777	982.233327949165	687.084569758032	
90	25.979642857143	863.136819219880	964.328227121730	301.409756809587	653.556941991491	1002.743821140418	466.719647651756	801.799533039499	1439.335179922880	293.224066583497	917.509290715352	1367.999616888245	444.749285395533	842.632214598987	1433.588870541928	626.762241437976	811.579225164000	1495.555329503099	445.171337091382	883.122421824407	936.910419082977	573.750428147224	915.612523628213	731.206071182103	552.774215781039	832.178523396902	625.244705620966	616.996941145856	910.318128677543	563.444406129271	543.286473111897	898.164024232611	455.112942776817	562.740045510983	928.015126774944	761.556621127523	335.549813318102	853.051520069587	637.550849709975	275.502967157505	942.629362162607	567.679809060167	341.479685214693	948.833677648823	496.630885580613	351.820560837356	925.818206616460	422.546228260010	343.402234547146	843.720087661036	303.711256955406	290.401838921239	897.887659354825	195.916220889868	364.170255650656	821.480084932654	387.930134212983	566.050672022328	701.875598041710	344.238484419660	624.229548017447	689.247811514556	236.881645949896	571.772489394368	487.381297705921	165.585892972053	539.946285882360	657.780211632208	121.023375426051	583.031489903425	549.294370101205	111.976401670957	614.588746440560	730.088831792338	31.686946446608	611.910334797300	774.818420264182	37.574342267253	404.397227311919	850.153462338183	35.275226961239	324.480279241547	931.990573830658	97.016297461614	352.404874227771	1061.349062772543	46.887634709665	326.911908751255	732.247976391236	1094.610518393212	167.874449436203	851.172060405493	861.317916876039	149.362845537910	856.735398435115	1088.787205995984	745.576196779255	1072.641881966523	963.902626965185	688.958121819763	
91	25.993571428571	863.587907351258	964.541954043003	298.943402107354	653.332836137525	1002.730361944946	463.492132905076	803.070334754007	1439.572670440661	290.329982209418	917.719025741139	1368.212584414100	442.649735372357	841.565129268715	1433.735625694807	624.215752086117	811.822529284029	1495.811900760440	442.352304900759	882.367957901789	937.219551093552	571.266450641871	920.617656756472	733.687321640321	550.474394252877	840.573095121577	625.864613628325	615.247771841906	920.673304854322	565.627272405455	541.682254056183	910.028530481170	456.056309450586	561.712746475922	926.719123442859	760.474917012028	332.548858477075	850.031781806135	637.466519672897	273.020259388736	938.634698376597	566.683547285386	339.064808091435	943.949990654425	495.766365742040	349.709165346138	920.744024182347	421.809160860518	341.514043706816	838.160511236698	303.151289413566	288.893660285809	891.581858239891	195.471316436415	363.384468405856	831.681405497091	389.419802260675	564.846951617573	710.410275008088	349.701865305087	622.797559239964	694.778909449258	242.562041701912	570.856128508619	491.320794035179	180.378642932611	538.458749472460	658.964882229739	126.192864515648	582.181275931265	549.915189074128	123.337962585186	613.432390725616	725.623577880339	31.084159310253	611.792328504538	767.755121383618	37.500728590905	404.276642504731	843.077642391068	35.113942694698	324.310203847563	924.977103422804	96.810917697584	352.232501098093	1054.362667513014	46.553176097792	326.858081335640	736.297042250372	1095.184937824956	162.151090471407	864.468170306882	866.762737456456	144.623273479054	846.464567547928	1087.875881123253	741.907138372583	1053.731877427100	945.927669703847	690.745829363850	
92	26.007500000000	863.866436923730	964.702883858250	296.632228743341	652.909155188923	1002.640023683887	460.422535523582	804.295841870217	1439.671674778359	287.606509298188	917.867901069759	1368.279736882512	440.735656964203	840.465420802848	1433.798805395565	621.833991290708	812.128247970937	1495.987371415082	439.677368037193	881.492812261781	937.473176554996	569.022030984178	925.458503227419	736.449329993127	548.153365118353	848.878015662670	626.782080983128	613.470286608605	930.881290073348	568.256400589428	539.994821494698	921.917155254646	457.522930179890	560.372579349745	925.333855387606	759.399713177898	329.523211471124	846.880248003461	637.351279806660	270.654694151735	934.601844297242	565.693901622759	336.657375764353	939.061745587639	494.918757467515	347.624177476018	915.654765200128	421.101336498571	339.672680641618	832.558179555549	302.638103192172	287.440721199323	885.268653008112	195.050671066739	362.597622171770	842.125489660493	391.276842664462	563.375569867763	719.452684943519	355.182504301584	621.186672201640	701.004783001712	248.341213957711	569.654234040269	496.379136852357	194.537875208326	536.809214194774	661.245009198345	131.731897513933	581.069342836454	551.880861909070	134.540920461730	612.097586635613	722.606721544807	30.832329123272	611.417308788790	760.709229146358	37.443586778361	404.147250675095	836.014557472091	34.972807453341	324.135141581233	917.972017936547	96.629843012201	352.042741316060	1047.377278415817	46.261659004022	326.780358443642	740.665170313842	1095.634651223498	156.503457923277	877.705676357128	872.377996311465	140.083157157363	836.520240079477	1087.101922444358	738.236499262065	1033.440136558849	928.579391705830	692.396983174729	
93	26.021428571429	864.009325707771	964.858789390809	294.486828764695	652.316383358824	1002.548830171972	457.506374747538	805.465681850745	1439.697543780035	285.060076436909	917.955394015740	1368.275256487196	439.004489330651	839.338232468448	1433.842247164509	619.614039340462	812.480534700918	1496.135892023707	437.155452191638	880.542413478655	937.746546692787	567.026713286845	930.014210584416	739.496536648499	545.827835690846	856.914028681305	628.042601580969	611.661014694931	940.727893375971	571.347671819338	538.221813076821	933.633434073790	459.544231034646	558.758619944535	923.867996399610	758.349369473980	326.529872544844	843.606601369301	637.214440028229	268.461824660403	930.532015212731	564.719705125761	334.327856640662	934.171527288093	494.100283437698	345.642030525072	910.550235036662	420.439805370161	337.942200156456	826.919430442566	302.195376227035	286.084247091616	878.946001899609	194.665272809318	361.836828938394	852.651942501773	393.510102441742	561.680010524297	728.857922431312	360.539726516083	619.426657120197	707.919261709307	254.023867711940	568.213831735474	502.496833737331	207.455413278497	535.086299285173	664.803690504005	137.369924816941	579.723398238001	555.327040724697	145.049281084221	610.635377830791	721.484380909309	31.029832805204	610.725785199612	753.680088262926	37.408233777511	404.011071123195	828.966426454109	34.857133681641	323.959954157890	910.977700660319	96.476993620039	351.841212781385	1040.394615181523	46.012170531937	326.680699054782	745.375693392122	1095.999297837826	151.028132021864	890.843662413930	878.151846674590	135.789019970872	826.955016698498	1086.532816615479	734.616416820844	1011.881713596747	912.139410541315	693.868046838745	
